<svg width="34" height="34" viewBox="0 0 34 34" fill="none" xmlns="http://www.w3.org/2000/svg">
<path d="M18.6596 4.25H12.7499C10.0786 4.25 8.74298 4.25 7.91312 5.07986C7.08325 5.90973 7.08325 7.24537 7.08325 9.91667V24.0833C7.08325 26.7546 7.08325 28.0903 7.91312 28.9201C8.74298 29.75 10.0786 29.75 12.7499 29.75H21.2499C23.9212 29.75 25.2569 29.75 26.0867 28.9201C26.9166 28.0903 26.9166 26.7546 26.9166 24.0833V12.5069C26.9166 11.9279 26.9166 11.6383 26.8087 11.378C26.7009 11.1177 26.4962 10.9129 26.0867 10.5035L20.6631 5.07986C20.2537 4.6704 20.0489 4.46567 19.7886 4.35784C19.5282 4.25 19.2387 4.25 18.6596 4.25Z" stroke="#DC4342" stroke-width="2"/>
<path d="M12.75 18.4167L21.25 18.4167" stroke="#DC4342" stroke-width="2" stroke-linecap="round"/>
<path d="M12.75 24.0833L18.4167 24.0833" stroke="#DC4342" stroke-width="2" stroke-linecap="round"/>
<path d="M18.4167 4.25V9.91667C18.4167 11.2523 18.4167 11.9201 18.8317 12.3351C19.2466 12.75 19.9144 12.75 21.2501 12.75H26.9167" stroke="#DC4342" stroke-width="2"/>
</svg>
