<svg width="19" height="19" viewBox="0 0 19 19" fill="none" xmlns="http://www.w3.org/2000/svg">
<path d="M9.50016 4.70833C9.91438 4.70833 10.2502 4.37255 10.2502 3.95833C10.2502 3.54412 9.91438 3.20833 9.50016 3.20833V4.70833ZM5.06846 13.966C5.36248 14.2578 5.83735 14.2559 6.12912 13.9619C6.42089 13.6679 6.41906 13.193 6.12505 12.9013L5.06846 13.966ZM8.08446 5.91731C7.85469 6.26195 7.94782 6.72761 8.29247 6.95737C8.63712 7.18714 9.10277 7.09401 9.33253 6.74936L8.08446 5.91731ZM10.2918 3.95833L10.9159 4.37436C11.0262 4.20885 11.0663 4.0063 11.0273 3.81125C10.9883 3.6162 10.8734 3.44463 10.7079 3.3343L10.2918 3.95833ZM8.33285 1.75096C7.98821 1.5212 7.52256 1.61433 7.29279 1.95897C7.06303 2.30362 7.15616 2.76927 7.5008 2.99904L8.33285 1.75096ZM9.50016 14.267C9.08595 14.267 8.75016 14.6027 8.75016 15.017C8.75016 15.4312 9.08595 15.767 9.50016 15.767V14.267ZM13.9319 5.00929C13.6378 4.71752 13.163 4.71934 12.8712 5.01336C12.5794 5.30737 12.5813 5.78224 12.8753 6.07401L13.9319 5.00929ZM10.9159 13.0827C11.1456 12.738 11.0525 12.2724 10.7079 12.0426C10.3632 11.8129 9.89756 11.906 9.66779 12.2506L10.9159 13.0827ZM8.7085 15.0417L8.08446 14.6256C7.97412 14.7911 7.93405 14.9937 7.97306 15.1888C8.01207 15.3838 8.12697 15.5554 8.29247 15.6657L8.7085 15.0417ZM10.6675 17.249C11.0121 17.4788 11.4778 17.3857 11.7075 17.041C11.9373 16.6964 11.8442 16.2307 11.4995 16.001L10.6675 17.249ZM9.50016 3.20833C6.02537 3.20833 3.2085 6.02521 3.2085 9.5H4.7085C4.7085 6.85364 6.8538 4.70833 9.50016 4.70833V3.20833ZM3.2085 9.5C3.2085 11.2459 3.92064 12.8269 5.06846 13.966L6.12505 12.9013C5.24939 12.0323 4.7085 10.83 4.7085 9.5H3.2085ZM9.33253 6.74936L10.9159 4.37436L9.66779 3.54231L8.08446 5.91731L9.33253 6.74936ZM10.7079 3.3343L8.33285 1.75096L7.5008 2.99904L9.8758 4.58237L10.7079 3.3343ZM9.50016 15.767C12.975 15.767 15.7918 12.9501 15.7918 9.47528H14.2918C14.2918 12.1216 12.1465 14.267 9.50016 14.267V15.767ZM15.7918 9.47528C15.7918 7.72935 15.0797 6.14834 13.9319 5.00929L12.8753 6.07401C13.7509 6.94298 14.2918 8.14527 14.2918 9.47528H15.7918ZM9.66779 12.2506L8.08446 14.6256L9.33253 15.4577L10.9159 13.0827L9.66779 12.2506ZM8.29247 15.6657L10.6675 17.249L11.4995 16.001L9.12452 14.4176L8.29247 15.6657Z" fill="black"/>
</svg>
